<?xml version="1.0" encoding="UTF-8" standalone="no"?>
<!-- Created with Inkscape (http://www.inkscape.org/) -->

<svg
   width="256mm"
   height="256mm"
   viewBox="0 0 256 256"
   version="1.1"
   id="svg1"
   xmlns="http://www.w3.org/2000/svg"
   xmlns:svg="http://www.w3.org/2000/svg"
   xmlns:rdf="http://www.w3.org/1999/02/22-rdf-syntax-ns#"
   xmlns:cc="http://creativecommons.org/ns#"
   xmlns:dc="http://purl.org/dc/elements/1.1/">
  <defs
     id="defs1" />
  <metadata
     id="metadata1">
    <rdf:RDF>
      <cc:Work
         rdf:about="">
        <dc:format>image/svg+xml</dc:format>
        <dc:type
           rdf:resource="http://purl.org/dc/dcmitype/StillImage" />
      </cc:Work>
    </rdf:RDF>
  </metadata>
  <path
     id="path2-4"
     style="display:inline;fill:#000000;fill-opacity:1;stroke:#000000;stroke-width:22.4991;stroke-linecap:round;stroke-linejoin:miter;stroke-dasharray:none;stroke-dashoffset:0"
     d="m 58.393896,26.749529 c -24.463428,2e-6 -44.295377,19.831948 -44.295375,44.295375 2e-6,19.276188 12.313398,35.676436 29.503315,41.764816 l 0.451697,-0.45053 c -2.996434,8.8902 -4.644865,18.40033 -4.644863,28.30112 0,48.92686 39.662732,88.59016 88.58959,88.59016 48.92686,0 88.59016,-39.6633 88.59016,-88.59016 0,-9.92931 -1.65802,-19.46569 -4.67101,-28.37785 l 0.51506,0.51506 c 17.17222,-6.09792 29.46901,-22.489088 29.46901,-41.752616 0,-24.463427 -19.83136,-44.295375 -44.2948,-44.295375 -19.26011,0 -35.64921,12.292848 -41.7497,29.460297 l 0.53831,0.538315 c -8.91762,-3.017131 -18.46061,-4.677418 -28.39703,-4.677418 -9.80215,0 -19.22139,1.615851 -28.035451,4.555338 l 0.242421,-0.241835 C 94.154049,39.125655 77.719196,26.749526 58.393896,26.749529 Z M 107.75095,72.753 H 147.124 l 1.7e-4,46.24736 L 193.372,119 v 39.37357 h -85.62105 z" />
</svg>
