<?xml version="1.0" encoding="UTF-8" standalone="no"?>
<!-- Created with Inkscape (http://www.inkscape.org/) -->

<svg
   width="256mm"
   height="256mm"
   viewBox="0 0 256 256"
   version="1.1"
   id="svg1"
   xmlns="http://www.w3.org/2000/svg"
   xmlns:svg="http://www.w3.org/2000/svg"
   xmlns:rdf="http://www.w3.org/1999/02/22-rdf-syntax-ns#"
   xmlns:cc="http://creativecommons.org/ns#"
   xmlns:dc="http://purl.org/dc/elements/1.1/">
  <defs
     id="defs1" />
  <metadata
     id="metadata1">
    <rdf:RDF>
      <cc:Work
         rdf:about="">
        <dc:format>image/svg+xml</dc:format>
        <dc:type
           rdf:resource="http://purl.org/dc/dcmitype/StillImage" />
      </cc:Work>
    </rdf:RDF>
  </metadata>
  <path
     id="path2-4"
     style="display:inline;fill:none;stroke:#000000;stroke-width:22.4991;stroke-linecap:round;stroke-linejoin:round;stroke-dasharray:none;stroke-dashoffset:0"
     d="M 43.6015,112.80952 C 26.411561,106.72113 14.09854,90.320768 14.098538,71.044553 c -2e-6,-24.463459 19.831553,-44.295009 44.295012,-44.295011 19.325325,-3e-6 35.760112,12.375832 41.8113,29.634426 m 55.65188,-0.174465 c 6.1005,-17.16747 22.48957,-29.459961 41.74972,-29.459961 24.46346,0 44.29501,19.831552 44.29501,44.295011 0,19.263555 -12.29685,35.655027 -29.46909,41.752957 m 4.15596,27.86293 c 0,48.92692 -39.66311,88.59002 -88.59003,88.59002 -48.926912,0 -88.590016,-39.6631 -88.590016,-88.59002 -3e-6,-48.926922 39.663102,-88.590028 88.590016,-88.590029 48.92692,0 88.59003,39.663107 88.59003,88.590029 z" />
  <path
     style="fill:#000000;fill-opacity:1;fill-rule:nonzero;stroke:#000000;stroke-width:0;stroke-linecap:round;stroke-linejoin:miter;stroke-dasharray:none;stroke-dashoffset:0;stroke-opacity:1;paint-order:normal"
     d="m 119.00038,85.2518 h 16.87429 v 44.99811 h 44.99811 v 16.87429 h -61.8724 z"
     id="path21" />
</svg>
