<?xml version="1.0" encoding="UTF-8" standalone="no"?>
<!-- Created with Inkscape (http://www.inkscape.org/) -->

<svg
   width="256"
   height="256"
   viewBox="0 0 256 256"
   version="1.1"
   id="svg1"
   xmlns="http://www.w3.org/2000/svg"
   xmlns:svg="http://www.w3.org/2000/svg"
   xmlns:rdf="http://www.w3.org/1999/02/22-rdf-syntax-ns#">
  <defs
     id="defs1" />
  <metadata
     id="metadata2">
    <rdf:RDF />
  </metadata>
  <path
     id="path1-8"
     style="display:inline;fill:#000000;fill-opacity:1;stroke:none;stroke-width:0;stroke-linecap:round;stroke-linejoin:round;stroke-dasharray:none;stroke-opacity:1"
     d="m 61.75,15.5 a 35,35 0 0 0 -35,35 v 155.25 a 35,35 0 0 0 35,35 h 132 a 35,35 0 0 0 35,-35 V 50.5 a 35,35 0 0 0 -35,-35 z m 9.75,28.125 h 23 a 11,11 0 0 1 11,11 v 11.75 a 11,11 0 0 1 -11,11 h -23 a 11,11 0 0 1 -11,-11 v -11.75 a 11,11 0 0 1 11,-11 z m 104.37695,7.839844 a 13.118574,9.4705626 45 0 1 9.77344,4.730468 l 2.9043,2.904297 a 13.11857,9.4705593 45 0 1 2.57812,15.972657 l -48.56054,48.560544 a 13.118572,9.4705607 45 0 1 -15.97266,-2.57812 l -2.9043,-2.9043 a 13.118571,9.4705605 45 0 1 -2.57812,-15.97266 l 48.56054,-48.560542 a 13.118574,9.4705626 45 0 1 6.19922,-2.152344 z M 71.5,88.625 h 23 a 11,11 0 0 1 11,11 v 11.75 a 11,11 0 0 1 -11,11 h -23 a 11,11 0 0 1 -11,-11 v -11.75 a 11,11 0 0 1 11,-11 z m 0,45 h 23 a 11,11 0 0 1 11,11 v 11.75 a 11,11 0 0 1 -11,11 h -23 a 11,11 0 0 1 -11,-11 v -11.75 a 11,11 0 0 1 11,-11 z m 56.25,0 h 56.75 a 11,11 0 0 1 11,11 v 11.75 a 11,11 0 0 1 -11,11 h -56.75 a 11,11 0 0 1 -11,-11 v -11.75 a 11,11 0 0 1 11,-11 z m -56.25,45 h 23 a 11,11 0 0 1 11,11 v 11.75 a 11,11 0 0 1 -11,11 h -23 a 11,11 0 0 1 -11,-11 v -11.75 a 11,11 0 0 1 11,-11 z m 56.25,0 h 56.75 a 11,11 0 0 1 11,11 v 11.75 a 11,11 0 0 1 -11,11 h -56.75 a 11,11 0 0 1 -11,-11 v -11.75 a 11,11 0 0 1 11,-11 z" />
</svg>
